<svg xmlns="http://www.w3.org/2000/svg" class="h-69 w-69 undefined" width="69" viewBox="0 0 76 76" fill="#FFD233" stroke="#FFD233" stroke-linecap="round" stroke-linejoin="round" shape-rendering="geometricPrecision"><path d="M56.8084 30.5928H52.1046C52.1027 28.7221 51.3587 26.9285 50.0359 25.6057C48.7131 24.2829 46.9196 23.5389 45.0488 23.5371V18.8333C48.1665 18.837 51.1554 20.0771 53.36 22.2817C55.5645 24.4862 56.8046 27.4751 56.8084 30.5928Z"/><path d="M66.2154 30.5928H61.5116C61.5066 26.228 59.7705 22.0434 56.6841 18.957C53.5977 15.8706 49.4131 14.1345 45.0482 14.1295V9.42566C50.6602 9.43189 56.0405 11.664 60.0088 15.6323C63.9771 19.6005 66.2092 24.9809 66.2154 30.5928ZM48.1833 50.5417L53.4516 45.2735C54.1568 44.5681 55.0534 44.0852 56.0305 43.8845C57.0075 43.6838 58.0219 43.7743 58.948 44.1445L65.364 46.7128C66.3097 47.0912 67.1203 47.7442 67.6912 48.5877C68.2622 49.4311 68.5674 50.4263 68.5673 51.4449V63.1127C68.569 63.8062 68.4291 64.4927 68.1562 65.1303C67.8833 65.7678 67.4832 66.343 66.9803 66.8205C66.4775 67.2981 65.8824 67.668 65.2317 67.9076C64.5809 68.1472 63.888 68.2514 63.1956 68.214C18.2223 65.4152 9.13927 27.3237 7.45295 12.7371C7.37127 12.024 7.4415 11.3017 7.65901 10.6177C7.87651 9.93368 8.23637 9.30345 8.71491 8.76848C9.19346 8.23351 9.77984 7.80591 10.4355 7.51382C11.0911 7.22172 11.8012 7.07174 12.519 7.07375H23.9798C24.9984 7.07372 25.9935 7.37887 26.837 7.94984C27.6805 8.5208 28.3335 9.3314 28.7119 10.2771L31.2778 16.6931C31.6481 17.6192 31.7385 18.6336 31.5378 19.6106C31.3372 20.5876 30.8542 21.4843 30.1489 22.1895L24.8806 27.4578C24.8806 27.4578 27.8017 47.9946 48.1833 50.5417Z"/></svg>