<svg xmlns="http://www.w3.org/2000/svg" class="h-69 w-69 undefined" width="69" viewBox="0 0 80 60" fill="#F7DE01" stroke="#FFD233" stroke-linecap="round" stroke-linejoin="round" shape-rendering="geometricPrecision"><path d="M79.3845 28.6498L71.0583 9.74629C70.8446 9.26042 70.489 8.84631 70.0355 8.55537C69.5821 8.26444 69.0508 8.1095 68.5077 8.10979H60.1815V2.7088C60.1815 1.99258 59.8891 1.3057 59.3686 0.799258C58.8481 0.292817 58.1422 0.00830078 57.4061 0.00830078H12.9996V5.40929H54.6307V39.3167C53.366 40.0313 52.2592 40.9823 51.3742 42.1151C50.4891 43.2479 49.8433 44.5399 49.474 45.9167H32.0333C31.3578 43.3711 29.7513 41.1526 27.5149 39.677C25.2786 38.2014 22.5659 37.5701 19.8854 37.9013C17.2049 38.2326 14.7405 39.5038 12.9543 41.4765C11.1681 43.4492 10.1826 45.9881 10.1826 48.6172C10.1826 51.2464 11.1681 53.7853 12.9543 55.758C14.7405 57.7307 17.2049 59.0019 19.8854 59.3331C22.5659 59.6644 25.2786 59.0331 27.5149 57.5575C29.7513 56.0819 31.3578 53.8634 32.0333 51.3177H49.474C50.0777 53.6354 51.4585 55.691 53.3978 57.1594C55.3371 58.6277 57.7242 59.425 60.1815 59.425C62.6388 59.425 65.0259 58.6277 66.9652 57.1594C68.9045 55.691 70.2852 53.6354 70.889 51.3177H76.8339C77.57 51.3177 78.2759 51.0332 78.7964 50.5268C79.3169 50.0203 79.6093 49.3335 79.6093 48.6172V29.7138C79.6094 29.3479 79.5329 28.9859 79.3845 28.6498V28.6498ZM21.3258 54.0182C20.228 54.0182 19.1548 53.7015 18.242 53.108C17.3291 52.5145 16.6177 51.671 16.1975 50.6841C15.7774 49.6972 15.6675 48.6112 15.8817 47.5636C16.0958 46.5159 16.6245 45.5535 17.4008 44.7982C18.1771 44.0428 19.1662 43.5284 20.2429 43.32C21.3197 43.1116 22.4357 43.2186 23.45 43.6274C24.4643 44.0362 25.3312 44.7284 25.9411 45.6166C26.5511 46.5048 26.8766 47.549 26.8766 48.6172C26.8752 50.0492 26.2899 51.4222 25.2492 52.4347C24.2085 53.4473 22.7975 54.0168 21.3258 54.0182V54.0182ZM60.1815 13.5108H66.6759L72.6264 27.0133H60.1815V13.5108ZM60.1815 54.0182C59.0836 54.0182 58.0104 53.7015 57.0976 53.108C56.1848 52.5145 55.4733 51.671 55.0532 50.6841C54.6331 49.6972 54.5231 48.6112 54.7373 47.5636C54.9515 46.5159 55.4802 45.5535 56.2565 44.7982C57.0327 44.0428 58.0218 43.5284 59.0986 43.32C60.1753 43.1116 61.2914 43.2186 62.3057 43.6274C63.3199 44.0362 64.1869 44.7284 64.7968 45.6166C65.4067 46.5048 65.7323 47.549 65.7323 48.6172C65.7308 50.0492 65.1455 51.4222 64.1049 52.4347C63.0642 53.4473 61.6532 54.0168 60.1815 54.0182ZM74.0585 45.9167H70.889C70.2776 43.6036 68.8947 41.5532 66.9569 40.0871C65.0191 38.6209 62.6361 37.8219 60.1815 37.8153V32.4143H74.0585V45.9167Z"/><path d="M5.93753 26.8544H39.2424V32.2554H5.93753V26.8544ZM0.386719 13.3519H28.1408V18.7529H0.386719V13.3519Z"/></svg>