<svg xmlns="http://www.w3.org/2000/svg" class="h-69 w-69 undefined" width="69" viewBox="0 0 69 69" fill="#FFD233" stroke="#FFD233" stroke-linecap="round" stroke-linejoin="round" shape-rendering="geometricPrecision"><path d="M43.7927 29.0352C43.7904 30.3894 43.2514 31.6874 42.2939 32.6449C41.3364 33.6024 40.0384 34.1413 38.6843 34.1437H29.0299V23.9268H38.6843C40.0384 23.9291 41.3364 24.4681 42.2939 25.4256C43.2514 26.3831 43.7904 27.6811 43.7927 29.0352ZM68.1946 34.1437C68.1946 52.9581 52.9506 68.1999 34.1383 68.1999C15.3261 68.1999 0.0820312 52.9559 0.0820312 34.1437C0.0820312 15.3292 15.3261 0.0874023 34.1383 0.0874023C52.9506 0.0874023 68.1946 15.3314 68.1946 34.1437ZM50.604 29.0352C50.6022 25.8745 49.3458 22.8437 47.1108 20.6087C44.8758 18.3737 41.845 17.1173 38.6843 17.1155H22.2186V51.1718H29.0299V40.9549H38.6843C41.845 40.9532 44.8758 39.6968 47.1108 37.4618C49.3458 35.2268 50.6022 32.196 50.604 29.0352Z"/></svg>