<svg xmlns="http://www.w3.org/2000/svg" class="h-69 w-69 undefined" width="69" viewBox="0 0 62 66" fill="#FFD233" stroke="#FFD233" stroke-linecap="round" stroke-linejoin="round" shape-rendering="geometricPrecision"><path d="M31.0999 0.911011C32.154 0.911011 33.1919 0.979402 34.1574 1.14032C35.1083 1.26493 36.0466 1.47222 36.9615 1.75986C37.8787 2.03745 38.7758 2.38343 39.673 2.81791C40.546 3.23228 41.4431 3.73918 42.3402 4.29033C43.8569 5.25585 45.3494 6.03632 46.8701 6.65988C49.8638 7.85807 53.0294 8.57105 56.2477 8.77196C57.8811 8.88863 59.5587 8.95702 61.3046 8.95702V25.049C61.3046 28.1065 60.9144 31.0031 60.134 33.7629C59.3843 36.4833 58.319 39.1066 56.9598 41.5796C55.6064 44.049 54.005 46.3742 52.1805 48.5192C50.328 50.713 48.3222 52.7726 46.1782 54.6825C44.0058 56.598 41.7178 58.3782 39.327 60.013C36.9373 61.6704 34.5235 63.2112 32.1097 64.6112L31.1442 65.1865L30.1787 64.6112C27.6973 63.1746 25.2736 61.6407 22.9131 60.013C20.509 58.3966 18.2197 56.6155 16.062 54.6825C13.9193 52.7725 11.9148 50.7129 10.0637 48.5192C8.24403 46.3651 6.63549 44.0412 5.26019 41.5796C3.92428 39.0956 2.86008 36.4749 2.08604 33.7629C1.30063 30.9256 0.913398 27.9929 0.935463 25.049V8.95702C2.68547 8.95702 4.36306 8.88863 5.9964 8.77196C7.60424 8.66028 9.20167 8.43035 10.7757 8.08403C12.3165 7.73805 13.8573 7.27943 15.374 6.65988C16.9478 6.02471 18.4567 5.23927 19.8798 4.31447C21.6499 3.16389 23.4442 2.31504 25.2143 1.75584C27.1206 1.17143 29.1062 0.886424 31.0999 0.911011ZM57.2575 12.9116C54.2122 12.7639 51.1953 12.2547 48.2701 11.395C45.3605 10.527 42.589 9.24966 40.0391 7.60127C38.7164 6.73309 37.28 6.0521 35.7706 5.57769C34.263 5.12203 32.695 4.89688 31.1201 4.90988C29.5334 4.89961 27.9539 5.12467 26.4333 5.57769C24.9217 6.03669 23.4871 6.71872 22.1769 7.60127C19.6225 9.25865 16.8439 10.5416 13.9257 11.411C11.0734 12.2398 8.08836 12.7467 4.95847 12.9317V25.0691C4.95847 27.7364 5.30444 30.287 5.9964 32.745C6.70134 35.1817 7.67272 37.5333 8.89296 39.7571C10.1278 42.0041 11.5833 44.1226 13.2378 46.0813C14.9154 48.0566 16.7056 49.8951 18.6367 51.6411C20.5677 53.3911 22.5913 55.0003 24.7074 56.4928C26.8436 57.9894 28.9838 59.3451 31.1201 60.5842C33.3074 59.3108 35.4402 57.9458 37.5126 56.4928C39.6427 55.005 41.677 53.3845 43.6034 51.6411C45.5345 49.8951 47.3287 48.0566 49.0063 46.0813C50.661 44.1228 52.1165 42.0042 53.3512 39.7571C54.566 37.5361 55.523 35.1834 56.2035 32.745C56.9165 30.2492 57.2713 27.6648 57.2575 25.0691V12.9116Z"/><path fill-rule="evenodd" clip-rule="evenodd" d="M46.097 19.8554L44.3269 18.3347L42.6936 18.4755L25.1533 39.1859L19.1791 30.6572L17.5699 30.3836L15.7073 31.7152L15.4297 33.3244L23.1096 44.2911L23.9826 44.7739L25.8211 44.8865L26.7625 44.4762L46.2137 21.4847L46.097 19.8554Z"/></svg>